# xmcd CD database file
#
# Track frame offsets:
#	150
#	22845
#	38295
#	67615
#	78885
#	116470
#	128462
#
# Disc length: 2131 seconds
#
# Revision: 2
# Processed by: cddbd v1.5.2PL0 Copyright (c) Steve Scherf et al.
# Submitted via: CDex 1.70beta2
#
DISCID=38085107
DTITLE=Mississippi Fred McDowell - Mississippi Drlta Blues
DYEAR=1900
DGENRE=
TTITLE0=Some Day Baby
TTITLE1=Milk Cow Blues
TTITLE2=The Train I Ride
TTITLE3=Over The Hill
TTITLE4=Goin' Down To The River
TTITLE5=I Wished I Were In Heaven Sitting Down
TTITLE6=Louise
EXTD=
EXTT0=
EXTT1=
EXTT2=
EXTT3=
EXTT4=
EXTT5=
EXTT6=
PLAYORDER=
